<svg xmlns="http://www.w3.org/2000/svg" viewBox="0 0 2172 724" fill="none">
  <defs>
    <filter id="softGlow" x="-20%" y="-20%" width="140%" height="140%" color-interpolation-filters="sRGB">
      <feGaussianBlur stdDeviation="1.35" result="blur"/>
      <feMerge>
        <feMergeNode in="blur"/>
        <feMergeNode in="SourceGraphic"/>
      </feMerge>
    </filter>

    <style>
      .trace { stroke: #D8B16A; stroke-width: 2.2; stroke-linecap: round; stroke-linejoin: round; opacity: 0.9; }
      .hex-outer { stroke: #D8B16A; stroke-width: 2.8; opacity: 0.9; }
      .hex-inner { stroke: #F2E4C8; stroke-width: 1.8; opacity: 0.95; }
      .node-dot { fill: #D8B16A; }
      .node-dot-inner { fill: #FFF6E8; }
    </style>
  </defs>

  <g filter="url(#softGlow)">
    <!-- connectors -->
    <path class="trace" d="M460 232H628"/>
    <path class="trace" d="M628 232H770L878 314"/>

    <path class="trace" d="M1712 232H1544"/>
    <path class="trace" d="M1544 232H1402L1294 314"/>

    <path class="trace" d="M422 420H608"/>
    <path class="trace" d="M608 420H768"/>
    <path class="trace" d="M768 420H894"/>

    <path class="trace" d="M1750 420H1564"/>
    <path class="trace" d="M1564 420H1404"/>
    <path class="trace" d="M1404 420H1278"/>

    <path class="trace" d="M844 564H894L948 488"/>
    <path class="trace" d="M1328 564H1278L1224 488"/>

    <path class="trace" d="M1086 252V288"/>
    <path class="trace" d="M1086 536V572"/>

    <!-- small dots on connectors -->
    <circle class="node-dot" cx="628" cy="232" r="5"/>
    <circle class="node-dot-inner" cx="628" cy="232" r="2.1"/>

    <circle class="node-dot" cx="770" cy="232" r="5"/>
    <circle class="node-dot-inner" cx="770" cy="232" r="2.1"/>

    <circle class="node-dot" cx="1544" cy="232" r="5"/>
    <circle class="node-dot-inner" cx="1544" cy="232" r="2.1"/>

    <circle class="node-dot" cx="1402" cy="232" r="5"/>
    <circle class="node-dot-inner" cx="1402" cy="232" r="2.1"/>

    <circle class="node-dot" cx="608" cy="420" r="5"/>
    <circle class="node-dot-inner" cx="608" cy="420" r="2.1"/>

    <circle class="node-dot" cx="768" cy="420" r="5"/>
    <circle class="node-dot-inner" cx="768" cy="420" r="2.1"/>

    <circle class="node-dot" cx="894" cy="420" r="5"/>
    <circle class="node-dot-inner" cx="894" cy="420" r="2.1"/>

    <circle class="node-dot" cx="1564" cy="420" r="5"/>
    <circle class="node-dot-inner" cx="1564" cy="420" r="2.1"/>

    <circle class="node-dot" cx="1404" cy="420" r="5"/>
    <circle class="node-dot-inner" cx="1404" cy="420" r="2.1"/>

    <circle class="node-dot" cx="1278" cy="420" r="5"/>
    <circle class="node-dot-inner" cx="1278" cy="420" r="2.1"/>

    <circle class="node-dot" cx="894" cy="564" r="5"/>
    <circle class="node-dot-inner" cx="894" cy="564" r="2.1"/>

    <circle class="node-dot" cx="948" cy="488" r="5"/>
    <circle class="node-dot-inner" cx="948" cy="488" r="2.1"/>

    <circle class="node-dot" cx="1278" cy="564" r="5"/>
    <circle class="node-dot-inner" cx="1278" cy="564" r="2.1"/>

    <circle class="node-dot" cx="1224" cy="488" r="5"/>
    <circle class="node-dot-inner" cx="1224" cy="488" r="2.1"/>

    <circle class="node-dot" cx="1086" cy="252" r="5"/>
    <circle class="node-dot-inner" cx="1086" cy="252" r="2.1"/>

    <circle class="node-dot" cx="1086" cy="572" r="5"/>
    <circle class="node-dot-inner" cx="1086" cy="572" r="2.1"/>

    <!-- peripheral hexes -->
    <!-- flat-top hex: w=154, h=132 -->
    <g>
      <polygon class="hex-outer" points="293,166 359,166 397,232 359,298 293,298 255,232"/>
      <polygon class="hex-inner" points="299,174 353,174 385,232 353,290 299,290 267,232"/>

      <polygon class="hex-outer" points="629,166 695,166 733,232 695,298 629,298 591,232"/>
      <polygon class="hex-inner" points="635,174 689,174 721,232 689,290 635,290 603,232"/>

      <polygon class="hex-outer" points="1439,166 1505,166 1543,232 1505,298 1439,298 1401,232"/>
      <polygon class="hex-inner" points="1445,174 1499,174 1531,232 1499,290 1445,290 1413,232"/>

      <polygon class="hex-outer" points="1775,166 1841,166 1879,232 1841,298 1775,298 1737,232"/>
      <polygon class="hex-inner" points="1781,174 1835,174 1867,232 1835,290 1781,290 1749,232"/>

      <polygon class="hex-outer" points="249,354 315,354 353,420 315,486 249,486 211,420"/>
      <polygon class="hex-inner" points="255,362 309,362 341,420 309,478 255,478 223,420"/>

      <polygon class="hex-outer" points="651,354 717,354 755,420 717,486 651,486 613,420"/>
      <polygon class="hex-inner" points="657,362 711,362 743,420 711,478 657,478 625,420"/>

      <polygon class="hex-outer" points="1417,354 1483,354 1521,420 1483,486 1417,486 1379,420"/>
      <polygon class="hex-inner" points="1423,362 1477,362 1509,420 1477,478 1423,478 1391,420"/>

      <polygon class="hex-outer" points="1819,354 1885,354 1923,420 1885,486 1819,486 1781,420"/>
      <polygon class="hex-inner" points="1825,362 1879,362 1911,420 1879,478 1825,478 1793,420"/>

      <polygon class="hex-outer" points="793,498 859,498 897,564 859,630 793,630 755,564"/>
      <polygon class="hex-inner" points="799,506 853,506 885,564 853,622 799,622 767,564"/>

      <polygon class="hex-outer" points="1273,498 1339,498 1377,564 1339,630 1273,630 1235,564"/>
      <polygon class="hex-inner" points="1279,506 1333,506 1365,564 1333,622 1279,622 1247,564"/>
    </g>

    <!-- center hex -->
    <g>
      <polygon class="hex-outer" points="957,250 1215,250 1345,362 1215,474 957,474 827,362"/>
      <polygon class="hex-inner" points="971,264 1201,264 1321,362 1201,460 971,460 851,362"/>
    </g>
  </g>
</svg>
