<?xml version="1.0" encoding="UTF-8"?>
<svg id="Camada_1" data-name="Camada 1" xmlns="http://www.w3.org/2000/svg" viewBox="0 0 160 160">
  <defs>
    <style>
      .cls-1 {
        fill: #4b0607;
      }

      .cls-2 {
        fill: #faf9f6;
      }

      .cls-3 {
        fill: #c50611;
      }

      .cls-4 {
        fill: #f3f3f0;
      }

      .cls-5 {
        fill: #f9f7f4;
      }

      .cls-6 {
        fill: #dc020c;
      }

      .cls-7 {
        fill: #a50e0d;
      }

      .cls-8 {
        fill: #d5050f;
      }

      .cls-9 {
        fill: #100102;
      }

      .cls-10 {
        fill: #170202;
      }

      .cls-11 {
        fill: #5f0807;
      }

      .cls-12 {
        fill: #7b0b0b;
      }

      .cls-13 {
        fill: #290405;
      }

      .cls-14 {
        fill: #f0040d;
      }
    </style>
  </defs>
  <path class="cls-1" d="M160.9,21.06v1.57l-.67.83-.23.64.91,1.52v1.73l-.57-.68c-.19-.62-.55-1.18-.84-1.83-.02-.06.05-.2-.02-.29-.19-.08-.43.01-.61-.02-.6-.11-.96-.14-1.57-.16-2.35-.08-4.82.14-7.16,0-.27-.01-1.73-.11-1.8-.16-.02-.02.01-.24,0-.31h2.51c2.38,0,5.23.2,7.54,0,.15-.01.36.03.47,0,.37,0,.54.11.47-.31.03-.02-.04-.16,0-.21.33-.4.27-.61.62-.85l.95-1.45Z"/>
  <path class="cls-9" d="M159.01,0h1.89v2.51c-.78-.03-.42-.83-.93-1.06l-.95-1.45Z"/>
  <polygon class="cls-9" points="160.9 22.63 160.9 25.61 159.99 24.09 160.23 23.45 160.9 22.63"/>
  <path class="cls-10" d="M26.55,97.11c-.4.01-.97-.07-1.31,0-.14.03-.04.43-.5.32-.06-.01-.27-.8-.81.05-.19.3-.35,1.08-.51,1.46-.17.4-.63.49-.72.68-.22.48-.38,1.58-.76,2.16-.09.13-.54.35-.57.48-.05.22.03.79,0,.83-.05.05-.58-.05-.63,0-.04.04.04.61,0,.83-.03.14-.59.41-.62.54-.06.3.09.76-.08,1-.1.13-.41.09-.51.19-.3.28-.84,1.71-1.04,2.11-.06.13-.54.35-.57.48-.07.31.53,2.29.64,2.38.12.09.52-.05.6.02.05.04.09.92.26,1.24.25.46.53.96.78,1.42.27.49,1,.99.86,1.73l-.74-.36-2.11-4.02c-1.06.13-.42-.56-.59-1.19-.03-.09-1.5-.62-1.11-1.35,1.57.08.87.03,1.13-.83.08-.27,1.03-1.48,1.21-1.81.37-.71.69-1.6.99-2.36.96.05.47-.22.61-.86.03-.12.28-.13.36-.3.51-1.15.8-1.76,1.52-2.76.34-.48.22-1.03.37-1.4.02-.04.45-.23.54-.63.07-.29.11-1.09.05-1.35-.05-.23-.54-.16-.61-.28-.14-.22.09-1.09-.04-1.22-.05-.05-.31.03-.41-.04-.16-.11-1.48-2.73-1.75-3.25-.1-.18-.29-.96-.37-1.08-.03-.05-.83-.63-.86-.71-.12-.29.03-.62-.12-.91-.1-.2-.42-.22-.51-.35-.13-.19-.2-.95-.4-1.17-.15-.16-.5-.13-.57-.22-.12-.17.19-1.11-.38-1.34-.2-.08-.41-.03-.62-.09s-.34-.28-.36-.28h-6.21s-.03-.63,0-.63h7.23s.3-.4.31-.43c.06-.25-.05-.51.05-.79.02-.06.55-.34.58-.47.05-.23-.04-.49.01-.71.03-.14.59-.4.62-.54.05-.21-.03-.79,0-.83.06-.05.54.07.62,0,.03-.03,0-.42.09-.61.95-1.91,2.09-4.09,3.11-5.93.11-.19.55-.55.58-.76.04-.25.04-1.2-.04-1.4-.09-.25-.44-.27-.53-.42-.16-.26-.02-.57-.08-.83-.02-.09-.73-1.2-.88-1.49-.09-.16-.34-.18-.36-.3-.05-.21.04-.79,0-.83-.05-.05-.58.06-.63,0-.03-.03.04-.6-.03-.83-.12-.4-.96-.77-.6-1.68.91-.12.48.15.71.62.39.78,1.31,1.77,1.78,2.66s.83,2.04,1.29,2.88,1.96.44,2.72.44c1.78,0,4.03-.16,5.74,0,.09.47-.24.3-.54.31-1.48.05-3.5-.2-4.87,0-.14.02-.99.29-.87.62-.26.01-.63-.06-.84,0-.18.05.02.4-.34.32-.14-.03-.03-.28-.18-.32-.75-.19-.42.21-.54.51-.02.04-.33.64-.39.75-.14.26-.51.26-.55.43-.05.21.06.78,0,.83s-.57-.06-.63,0c-.05.05.05.89,0,1.14-.03.14-.59.41-.62.54-.05.22.03.79,0,.83-.05.05-.58-.05-.63,0-.04.04.04.61,0,.83-.03.13-.48.34-.57.48-.02.04-.34.66-.36.7-.06.15.04.46,0,.5-.06.06-.57-.05-.63,0-.04.03.05.73-.03.99-.13.42-1.22,1.74-1.45,2.32-.07.18-.47,1.66-.4,1.72.95-.13.48.18.71.78.16.4.73.76.83,1.06.07.2,0,.64.03.67.06.06.57-.06.63,0,.08.07-.1,1.11.02,1.24.06.07.43,0,.54.17s.03.51.12.76c.02.06.46.3.53.41.33.54.71,1.72,1.01,2.33.25.51.49.59.71.81.5.49.43.94.67,1.47.13.28.43.35.48.5s-.04.46,0,.5c.2.22,5.18,0,5.97,0,.09.48-.24.3-.54.31-1.49.06-2.99-.04-4.48,0-.16.77,1.49-.15,1.41.63Z"/>
  <path class="cls-9" d="M114.39,23.57c1.08-.01,2.89.17,3.84,0,.61-.11.91-.83,1.5-.93.17.76-.32,1.65-.05,2.32.07.17.29.19.36.31.73,1.26,1.27,2.19,1.91,3.52.08.18.41.29.52.61.1.27.06.75.09.78.06.06.54-.07.62,0,.03.03-.01.42.09.61.16.32.67.6.82,1.07.37,1.12.8,1.45,1.22,2.4.13.3.02.58.08.83.02.09.52.23.31.74l12.94-.02c.17-.06,1.59-2.61,1.83-3,.28-.45.91-1.15,1.17-1.69.16-.35-.13-.88.39-.78-.02.26.01.53,0,.79l.63-.16c-.1.75-.58.69-.62.9s.03.79,0,.83c-.05.05-.58-.05-.63,0-.04.04.04.61,0,.83-.03.12-.55.41-.58.47-.11.3.01.55-.04.79-.04.17-.37.18-.48.33-.62.84-.42,1.69-.14,2.6,1.13-.22.36.74.65,1.23.04.07.37.13.51.35.39.57,1.68,2.62,1.89,3.15.13.33.01.72.12.91.03.06.58.29.76.58.22.35.21.89.46,1.22.14.19.47.23.56.42.14.3.01.66.15.95.11.22.51.24.56.42.05.21-.06.78,0,.83.13.14,2.34-.31,2.67.39.12.26-.27.32-.43.35-.62.12-1.9-.25-2.16.2-.16.27-.02.68-.11.99-.11.37-1.15,1.72-1.35,2.1-.32.59,0,1.18-1.13,1-.25-.83.31-.98.54-1.43.14-.27.17-.76.4-.98.14-.14.4-.04.48-.21.05-.09.44-1.28.46-1.4.2-1.36-.67-1.91-1.16-2.91-.09-.19-.06-.58-.09-.61-.08-.08-.56.05-.62,0-.05-.04.05-.89,0-1.14-.03-.12-.55-.41-.57-.47-.11-.3.02-.78-.07-.88-.04-.05-.35-.02-.52-.18-.32-.29-.36-1.08-.57-1.47-.32-.58-1.48-2.01-1.67-2.57-.08-.25.02-.54-.08-.79-.04-.1-1.06-1-1.22-1.21l-9.83-.09c-.6.23-1.05.43-1.73.33-.3-.04-.21-.29-.33-.32-.51-.14-.46.17-.59.25-.14.09-.38.01-.42.15-.05.19.06.5,0,.74-.01.06-.56.73-.61.86-.15.36-.23,1.29-.56,1.61-.23.23-.66.11-.71.16-.09.09.22,1.29-.63,1.25.03-.41-.02-.84,0-1.26.06-1.42.45-.92.58-1.3.4-1.09.31-.66.83-1.45.39-.58.69-1.41.37-2.1-.15-.31-.45-.14-.5-.2-.09-.09.02-.58-.02-.82-.03-.12-.55-.4-.58-.47-.22-.61-.48-1.4-.76-2-.11-.25-.63-.57-.78-.95-.1-.26-.06-.75-.09-.78-.06-.06-.5.08-.61-.01-.05-.04-.16-.86-.35-1.15s-.59-.4-.61-.52c-.05-.23.09-.7-.02-.81-.06-.06-.42,0-.54-.16-.14-.19-.02-.69-.11-1-.02-.07-.62-1.25-.68-1.36-.25-.41-.66-.74-1.16-.64-.07-.24.22-.6-.23-.63-.97-.07-2.01.03-3,0-.3-.01-.63.16-.54-.31Z"/>
  <path class="cls-10" d="M123.19,79.51c.49-.09.46.63.63.94,0,.01.22-.05.28.03.08.11.02.5.12.75.17.41.63.57.77.95.1.27.06.75.09.78.06.06.57-.06.63,0,.05.05-.04,1.03,0,1.26h10.06s.02.61,0,.63c-.29.3-7.26-.22-8.26,0-.58.38-1.23.22-1.76.37-.27.08-.6,1.23-.73,1.47-.22.43-.66,1-.87,1.44-.09.19-.27,1.03-.36,1.1-.13.11-.54-.04-.6.03-.05.05.05.36,0,.5-.04.09-.6.81-.62.86-.31,1.24-.76,1.47-1.25,2.53-.28.59-.76,1.09-.95,1.56-.07.17.05.5-.08.68-.11.15-.47.09-.54.17-.08.1.02.37-.03.48-.08.16-.28.13-.3.23-.05.21-.05.82,0,1.04.03.12.87.73.9.78.16.28.28,1.02.4,1.33.02.06.55.34.58.47.04.19-.03.64,0,.67.06.05.58-.06.63,0,.03.03-.02.57.04.82.11.41.43.61.53.81.56,1.04,1,2.06,1.57,3.21.08.15.34.18.36.3.07.34-.04.78,0,1.15-.12.14-.84-.6-.9-.68-.16-.24-.32-1.12-.44-1.36-.58-1.13-1.12-1.81-1.53-2.95-.02-.06-.55-.34-.58-.47-.3-1.4-.29-.6-.9-1.51-.04-.06-.64-1.26-.67-1.33-.06-.15.04-.46,0-.5-.06-.06-.58.05-.63,0s.06-.57,0-.63c-.05-.04-.36.05-.51,0s-.12-.28-.23-.31c-.51-.12-1.77,0-2.4,0-.07-.24.22-.6-.23-.63-.88-.06-1.8.03-2.68,0-.3-.01-.63.16-.54-.31,1.85-.05,4.32.23,6.06,0,.08-.01.78-.63.81-.69.1-.16.31-1,.42-1.16.08-.13.54-.35.57-.48.05-.22-.03-.79,0-.83.05-.05.57.06.63,0,.08-.07-.1-1.1.02-1.24.05-.06.35,0,.52-.18.46-.48,1.03-2.35,1.39-2.93.08-.13.54-.34.57-.48.2-.89.8-1.88,1.31-2.66.35-.52.87-.19.49-1.45-.04-.12-.52-1.05-.57-1.08-.18-.1-.55.01-.59-.03-.04-.03.04-.61-.03-.84-.15-.49-.54,0-.6-1.05l.63.16c-.04-.19.06-.69,0-.79-.14-.22-.4.23-.63-.94Z"/>
  <path class="cls-4" d="M84.22,119.73v5.74c0,.38.89,1.03,1.34,1.03.37,0,1.34-.65,1.34-.87v-5.89h2.04v5.74c0,.07-.42,1.1-.49,1.23-1.13,1.92-4.49,1.95-5.66.05-.14-.23-.6-1.25-.6-1.44v-5.58h2.04Z"/>
  <path class="cls-4" d="M100.25,122.25c-.55-.13-1.28.29-1.77.16-.12-.03-1.11-1.79-2.01-.56-.79,1.07,1.85,1.39,2.45,1.65,2.11.93,1.85,3.71-.24,4.48-2.22.82-4.39-.37-4.55-2.74.07-.07,1.7.01,1.93.15.15.09.17.47.41.72,1.03,1.05,2.77-.32,1.38-1.06-1.29-.69-3.61-.47-3.55-2.86.08-3.28,5.7-3.21,5.96.06Z"/>
  <path class="cls-4" d="M63.01,125.39v2.36h-1.89v-7.86h3.22c.11,0,1.1.24,1.27.31,2,.73,2.02,3.98.13,4.86-.87.41-1.8.34-2.73.33ZM63.01,123.66c3.01.53,2.88-2.53,0-2.04v2.04Z"/>
  <path class="cls-9" d="M27.65,48.71c-.44.05-.28.28-.42.31-.26.06-1.41.05-1.71.02-.33-.04-.12-.42-.6-.33-.82.15-1.15.88-1.41,1.52s-.63.97-.85,1.35c-.17.3-.57,1.6-.74,2-.11.24-.63.57-.78.95-.29.74.31.88-1.03.78.04-.36-.07-.8,0-1.15.02-.08.42-.27.54-.59.44-1.27.39-1.02,1.07-2.08.51-.8.96-1.54,1.36-2.25.15-.26.54-1.11.5-1.38-.02-.11-.89-.71-.92-.76-.12-.21.03-.56-.03-.8-.02-.08-.77-.88-.93-1.19-.37-.73-.56-1.64-.99-2.36-1.01.11-.46-.46-.61-1.17-.02-.07-.42-.28-.54-.59-.09-.25-.06-.7-.11-.76-.05-.06-.31.05-.46-.11-.19-.21-.41-1.1-.59-1.42-.54-1-.57-.71-.82-1.83-.03-.14-.34-.05-.33-.34.01-.34.28-.52.32-.8.14-.76-.39-1.35.79-1.33-.07,1.11-.61,1.99-.05,3.1.25.5,1.4,1.74,1.7,2.4.14.31.02.83.1.92.05.05.34,0,.52.18.29.3.4,1.32.7,1.62.16.16.48.13.57.26.15.22.02.6.1.85s.5.27.58.52c.1.3-.07.75.06.97.04.06.36.14.51.35.3.42.94,1.93,1.34,2.12.65.31,2.32-.12,3.04.08.17.04.09.31.1.32v.63Z"/>
  <path class="cls-13" d="M123.19,40.23c-.02.42.03.84,0,1.26-.08,1.04-.35.52-.55.94-.14.28-.02.59-.08.83-.04.13-.45.33-.55.49-.16.26-.65,1.44-.72,1.49-.13.11-.55-.03-.61.02-.04.04.05.63,0,.84-.03.12-.28.09-.31.21-.05.22.04.49,0,.72-.04.2-.71.34-.73.94,0,.15.07.8.11.94s.75,1.21.92,1.5c1.05,1.88,2.04,3.74,3.14,5.66.05.09-.02.32.07.45.39.62.69.18.89,1.31.12.65.09,1.39.94,1.57.02.21,0,.42,0,.63,0,.3.04.66,0,.94-.64-.04-.15-.4-.31-.63-.02-.03-.22.02-.31,0,.03-1.05-.23-.66-.31-.79-.37-.56-.83-1.48-1.21-2.17-.34-.63-.19-.49-.41-1.1-.02-.05-.77-.59-.85-.72-.86-1.36-1.51-3.14-2.26-4.53-.21-.38-.52-1.11-.66-1.34-.04-.06-.88-.92-.94-.94-.18-.08-.27-.03-.43-.05l.08-.63c-1.29.09-2.74-.12-4.01,0h-8.26c-.31.06-.2-.29-.23-.31h13.2c-.29-.6.58-.84.62-1.06.14-.63.32-1.18.69-1.72.09-.13.55-.35.57-.48.05-.24-.06-.73.02-.82.05-.05.36.06.47-.1.11-.17.08-.55.2-.8.07-.15,1.03-1.17,1.14-1.36.21-.37.15-1.24.69-1.2Z"/>
  <path class="cls-12" d="M40.23,76.21c.47.82.65,1.01,1.03,1.88.44,1,.89.95,1.17,2.25.04.16,1.6,2.25,1.83,2.68.15.28.2.87.37,1.21-.21.01-.42-.01-.63,0,.07.65,1.19,1.09.94,0,.1,0,.21,0,.31,0,.07.24-.22.6.23.63,1.53.1,3.25,0,4.8,0,.84,0,1.68,0,2.51,0v.16c-2.71-.02-5.43-.02-8.14.03-.23.84-.85,1.41-1.27,2.14-1.61,2.76-3.09,5.57-4.64,8.38-.17.31.04.49-.41.77-.04.02-.23-.06-.29.02-.12.16.08.94-.34,1.08-.04-.15.05-.59,0-.63-.14-.14-3.4.1-3.93,0-.26-.19,0-.28.23-.31.58-.07,3.54.11,3.69,0,.06-.16-.16-.3-.16-.31,0-.45,1.28-2.49,1.58-3.06.99-1.85,2.06-3.81,3.07-5.72.8-1.51,1.98-2.18,1.1-4.05-.2-.42-.92-1.28-1.18-1.76-.32-.57-2.03-4.09-2.22-4.27,0-.23-.09-.4-.31-.47,0-.05,0-.11,0-.16.09-.42.15-.5.63-.47Z"/>
  <path class="cls-10" d="M61.91,28.28c.15-.19.92-1.28.94-1.37.05-.25-.08-.61.03-.8.04-.08.35-.11.45-.25.15-.2.4-1.01.51-1.3.02-.06.23-.06.26-.16.05-.21.05-.83,0-1.04-.01-.04-.63-.4-.31-.74.03-.03.91-.03.94,0,.03.04-.11.64.37.88.93.46,1.39.07,2.21.06,3.75-.05,7.5.05,11.24,0-.19-.66.34-.66.56-1,.24-.36.72-1.51,1.09-1.67.32-.14.22.22.23.39.08.9-.17.57-.38.87-.35.51-.98,1.24-.89,1.81.05.3.3.21.32.34.28,1.3.14.5.58,1.2.1.16.32,1,.42,1.16.31.49.44-.03.58.99-.21,0-.42,0-.63,0-.15,0-.61.02-.63,0-.04-.05.04-.61,0-.83-.03-.12-.56-.41-.57-.47-.1-.3.02-.63-.12-.91-.11-.21-.46-.24-.52-.34-.15-.26.21-.65-.45-.69-.27-.02-.59.11-.92.11-4.02-.02-8.05,0-12.07,0-.11.24-.6.53-.68.67-.18.32-.9,2.34-1.03,2.44s-.43,0-.6.03c-.58.08-.16.29-.41.49-.12.09-.52.11-.53.14-.05.08.09.45-.03.6-.07.08-.27.01-.28.03-.19-.72.29-.59.31-.63Z"/>
  <path class="cls-7" d="M104.33,71.97c-.39-.67-.66-1.13-.94-1.77-.04-.09-.77-.55-.17-1.14.31-.3.24-.04.33.14.35.68.95,1.39,1.4,2.14.26.43.29.29.31.31.06.07.03.35.22.48.38.28,4.43.14,5.28.14-.38.55-1.5.29-2.13.31-.3,0-.63-.16-.54.31-.88,0-1.77-.03-2.65.03-.17.34-.32.78-.52,1.1-.35.58-.7.93-1.05,1.41-.05.07.2.35.1.58,0,.02-.24.06-.34.22-.34.59-2.41,4.07-2.46,4.32s.07.71-.03.81c-.05.05-.35,0-.52.18-.07.08-.89,1.63-1.01,1.86-.75,1.54-.09,1.88.61,3.2.1.19.3.33.46.75.12.32,0,.93.47,1.1,0,.05.01.14,0,.16-.02.02-.22-.04-.27.04-.12.18.1.54-.35.43-.02-.04.02-.11,0-.16-.11-.26-.29-1.2-.34-1.24-.08-.06-.26.01-.29-.02-.33-.35-.77-1.08-.99-1.45-.19-.33-.19-.83-.53-1.04-.52-.31-3.99-.22-4.85-.19-.34.01-.81.23-1.07.15-.6-.17.16-.89.53-.93.07.24-.22.6.23.63,1.53.1,3.16-.08,4.71,0,.19-.03.06-.45.09-.63.08-.5.3-.2.48-.42.3-.36.81-1.76,1.11-2.28,1.53-2.7,2.82-5.12,4.38-7.83.13-.22.62-.55.71-.93.11-.47-.28-.61-.39-.8Z"/>
  <path class="cls-13" d="M125.07,62.22c-.59.1-.16.15-.32.51-.57,1.22-1.43,2.48-2.14,3.63-.1.16-.31.99-.42,1.16-.08.14-.54.34-.57.48-.06.25.05.51-.05.79-.02.05-.83.65-.85.7-.14.4-.14.55-.31.96-.23.56-.45,1.18-.7,1.7-.1.21-.5.14-.25.72.02.05.46.29.53.4.06.09.66,1.24.68,1.32.05.2-.04.79,0,.83.06.05.54-.07.62,0,.02.02.03.41.1.6.22.53.45,1.01.68,1.53.31.71.91.92,1.11,1.94.23,1.17.49.73.63.94.06.09-.04.6,0,.79l-.63-.16c0-.15.03-.61,0-.63-.06-.05-.58.06-.63,0-.04-.04.04-.61,0-.83-.03-.13-.49-.34-.57-.48-.11-.17-.31-.96-.42-1.15-.76-1.35-1.84-2.59-2.15-4.02-.05-.21-.92-.47-.62-1.06.5-.02.29-.08.31-.63-1.15,0-2.31,0-3.46,0-1.36,0-2.73,0-4.09,0-.05,0-.1,0-.16,0-.21,0-.42,0-.63,0-.86,0-4.9.14-5.28-.14-.18-.14-.16-.41-.22-.48-.02-.03-.05.11-.31-.31.4-.11.28.27.31.31.02.02.51.32.54.33,1.58.21,3.98-.04,5.67-.02,1.6.02,3.08.06,4.7,0,.41-.02,2.51.1,2.6,0,.04-.05-.05-.36,0-.5.24-.63,1.4-1.94,1.74-2.69.26-.59.51-1.52.83-2.09.08-.14.53-.35.56-.48.06-.25-.05-.51.05-.79.03-.08,1.18-.99,1.21-1.09.13-.59.32-1.46.68-2.04.29-.45.52-.01.58-.99.24-.04.4-.24.55,0l.07.95Z"/>
  <path class="cls-9" d="M61.28,128.22c.03.43-.03,1.12-.31,1.46-.2.24-.57.21-.62.29-.04.07-.31,1.19-.45,1.51-.66,1.46-1.12,1.07-.47,2.91.21.58.58.97.8,1.38.28.54.11.9-.41.43-.84-.76-.94-2.14-1.79-2.95h-13.33s-.85.32-.85.32c.32-.75.12-2.04-.46-2.6-.48-.46-.84.03-.64-1.32.36-.38,1.31,1.17,1.45,1.45.24.47.09,1.36.99,1.53,1.41.27,3.05-.34,4.4-.33.64,0,.89.34,1.41.35.67.01,1.64-.31,2.35-.34,1.03-.04,4.5.27,5.07-.36.38-.43.11-1.28.85-1.3l1.11-2.4.92-.03Z"/>
  <path class="cls-4" d="M74.32,126.33h2.83v1.73h-4.87v-8.17c.35.04,2.04-.15,2.04.24v6.21Z"/>
  <path class="cls-10" d="M38.65,118.16l.08.79c.81,0,.45-.64.55-.79.02-.03.22.02.31,0-.04.37.07.79,0,1.14s-1.25.51-.89,2.04c.1.45.59.61.75.96.3.65.6,1.41.78,2.02.04.15,1.11,1.56,1.17,1.69.13.25.13.71.31,1.11.37.82,1.31,1.07.95,1.88-.84,0-1.32-1.8-1.67-2.41-.48-.85-1-1.37-1.55-2.07-.39-.5-.32-.87-.53-1.28-.06-.13-.54-.35-.57-.48-.05-.22.03-.79,0-.83-.14-.14-.83.39-.63-.63l-12.57-.31c-.34-.48,1.49-.61,1.8-.63,3.49-.23,7.24.19,10.76,0-.18-.63.5-.85.6-1.2.19-.62-.28-.89.35-.99Z"/>
  <path class="cls-9" d="M141.73,17.6c-.07-.01-.3.03-.31,0-.08-.11.12-.85-.07-1.11-.12-.17-.52-.07-.57-.24-.08-.29.12-.77-.03-1.12-.02-.04-.22-.06-.27-.15-.24-.46-1.9-3.03-2.28-3.03h-12.49s.02-.52,0-.63l13,.06c.28-.11.61-.92.83-1.2.25-.33,1.03-1.09,1.22-1.41.15-.25-.05-1.15.04-1.22.06-.05.44.07.6-.02.08-.05.21-.61.35-.8.12-.16.3-.21.47-.5.35-.58.25-1.41,1.1-1.19.16.66-.42.83-.66,1.3-.16.31-.27,1.13-.31,1.18-.08.08-.41.02-.52.18-.12.17-.03.54-.16.79-.47.93-.55.61-.89,1.78-.1.35-.9.9-.93,1.61,0,.27.26.18.32.34s-.03.45.08.68.52.24.56.42c.05.24-.09.6.03.8.05.08.38.1.52.35.17.32.34,1,.55,1.33.31.49.92.68.79,1.33,0-.01-.18.02-.25-.06-.23-.25-.19-.52-.69-.41v.94Z"/>
  <path class="cls-11" d="M98.68,35.2s.16.03.26-.05c.09-.07-.05-.38.36-.26,0,.31,0,.63,0,.94-.1.02-.21-.01-.31,0-.2.48.26.67.31.78.17.38.34.8.58,1.22,1.09,1.96,2.34,3.91,3.49,5.98.7,1.25,1.27,2.43,1.9,3.64-.02-.02-.16.02-.26-.06-.08-.07-.05-.24-.06-.25-.41-.27-.3.39-.31.63l-6.4-10.99-12.77.15c.03-.14-.02-.32,0-.47h12.57c.26-.19,0-.28-.23-.31-.58-.07-1.28.04-1.89,0-2.97-.18-7.14.21-9.82-.31h12.03c.33.02.34-.42.55-.63Z"/>
  <path class="cls-9" d="M83.56,129.51c.12.07.27.66.41.85.11.14.46.34.51.43.45.9.25,1.66,1.7,1.84,3.51.42,7.86-.32,11.46-.01.25-.04,1.06-.48,1.2-.69.26-.4.09-1.14.15-1.19s.42.07.59-.03c.22-.13.46-1.18.52-1.22.59-.38.48.59.47,1.02l-1.69,2.74h-14.03c.24.95-.39,1.08-.76,1.68s-.51,1.7-1.28,1.62c.11-.36.07-1.01.19-1.31.1-.25.46-.3.64-.62s.21-1.23.31-1.34c.07-.08.55-.06.6-.27.01-.05-.33-.93-.36-.97-.09-.15-1.17-1.22-1.21-1.41-.12-.56-.13-1.51.59-1.11Z"/>
  <path class="cls-13" d="M141.73,17.6v-.94c.49-.11.45.16.69.41.07.08.25.05.25.06.03.05-.05.24.01.34,1.1,1.72,2.09,3.46,3.11,5.29.1.17.08.76.56.82.36.04,1.86-.09,1.97,0,.02.02-.01.24,0,.31s-.02.3,0,.31c.07.05,1.54.15,1.8.16,2.34.13,4.8-.09,7.16,0l-11.04.16c-.59.35-.32.76-.48,1.21-.02.04-.47.3-.53.4-.36.57-.53,1.19-.99,1.84-.24.34-.6.63-.79,1.26-.01.04-.11.11-.15.25-.14.56.27.61-.32.69-.52.08-.26.05-.31.63,0,.05,0,.11,0,.16l-.63.16c.01-.26-.02-.53,0-.79,0-.05,0-.11,0-.16.54-.04.69-.46.63-.94.51-.76,1.59-2.83,1.88-3.58.06-.15-.04-.46,0-.5.06-.06.57.05.63,0,.06-.05.03-1.29,0-1.5-.11-.86-1.14-1.94-1.52-2.64s-.69-1.83-1.05-2.41c-.07-.11-.5-.33-.53-.41-.2-.46.22-.49-.36-.58Z"/>
  <path class="cls-13" d="M44.62,35.2c.33.97,1.25.61,2.2.63-.05.63-.02.38.38.48,1.03.24,1.96,0,2.92.31-1.1,0-4.3-.2-5.07.16-.06.03-.97.93-1,.99-1.54,3.03-3.11,6.07-4.82,9.02-.04.07-.22.08-.31.25-.15.29-.49.9-.57,1.16-.07.25.67.28.14.68-.03-.06-.31-.17-.4-.46-.15-.48.13-1.08-.38-.96.13-.45.36-.38.54-.79.4-.93.37-.64.76-1.29,1.4-2.33,2.67-5.05,3.99-7.46.37-.67.94-1.27.99-2.08.01-.21-.01-.42,0-.63h.63Z"/>
  <path class="cls-10" d="M102.13,29.23c.4-.54.2-.77.36-1.22.02-.06.54-.33.57-.47.31-1.18.8-1.48,1.25-2.53.04-.1,0-.28.07-.44.02-.06.23-.06.26-.16.24-1-.49-1.3-.47-2.25.64.01.69.81.84,1.05.12.2.5.3.58.36.02.02-.05.22.03.28.13.11,3.03.05,3.52.03.3-.01.63.16.54-.31,1.57,0,3.15.02,4.71,0-.09.47.24.3.54.31.99.03,2.03-.07,3,0,.45.03.16.39.23.63h-12.79c-.39.47-.34.98-.55,1.51-.16.4-.63.48-.72.68-.13.29-.02.58-.08.83-.02.07-.73.98-.85,1.22-.33.64.05.65-.71,1.25-.04-.42.19-.9-.31-.79Z"/>
  <path class="cls-11" d="M41.01,65.68l.31.63c-.17.15-1.25-.38-.16.79-.72,1.3-1.61,2.86-2.31,4.21s-.67,1.31.05,2.67c.36.69.87,1.46,1.31,2.23-.48-.03-.54.05-.63.47-.36.09-.32-.2-.42-.44-.49-1.18-1.3-2.18-1.89-3.34-2.21.01-4.43,0-6.65,0-.09-.47.24-.3.54-.31.4-.01,1.09.08,1.4,0,.17-.04.09-.31.1-.32.1-.06,1.97.02,2.36,0h.16c.61-.02,1.15-.16,1.73-.16.04,0,.22.47.63-.16s.74-1.68,1.12-2.38c.7-1.29,1.6-2.58,2.34-3.9Z"/>
  <path class="cls-12" d="M41.8,54.84c0,.05,0,.11,0,.16.01.07.08.13.16.16.05.05.1.11.16.16,0,.37-.11.54.31.47.01.05-.02.15,0,.16,0,.23.09.4.31.47,0,.05-.01.11,0,.16.12.48.27,1.49.79,1.26-.33.52.05.23.15.31.44.35.71,1.38,1,1.51.86.4,1.41.02,2.22.05,2.62.09,5.23.23,7.86.17.54-.01,2.53-.5,2.74.15-3.24,0-6.5-.01-9.74,0-.94,0-1.89,0-2.83,0l.31.63s.04.21-.04.27c-.14.11-.41-.04-.61.14s-1.47,2.52-1.72,2.96c-.34.58-.75,1.22-1.09,1.82l-.16.47c-.06.11-.11.23-.16.31l-.16.31s-.12.09-.16.16c-1.09-1.16-.02-.64.16-.79l-.31-.63c.78-1.4,1.62-2.83,2.35-4.2.22-.41.42-.83.64-1.23-.35-.61-.89-1.35-1.18-1.97-.08-.18-.05-.38-.09-.46-.34-.73-.66-1.45-.94-2.01-.12-.24.26-.64-.48-.51.04-.24.06-.85.47-.47ZM44.66,60.18c0-.11-.09-.19-.19-.19s-.19.09-.19.19.09.19.19.19.19-.09.19-.19Z"/>
  <path class="cls-11" d="M58.14,35.2s.57-.38.63-.31c.3.37-.88,1.92,0,1.88l1.57,2.99c-.04-.07-.35-.45-.47-.47-.47.87.5.91.47,1.88-.55-.96-1.55-2.35-2.15-3.5-.06-.11-.32-1.03-.45-1.06-2.54.03-5.07-.01-7.61.01-.96-.31-1.89-.07-2.92-.31-.4-.09-.43.15-.38-.48.78.02,1.57,0,2.36,0,.86.26,2.14.26,2.99,0,1.64-.01,3.52.13,5.13.01.31-.02.33-.09.53-.17.59-.23.17-.2.31-.47Z"/>
  <path class="cls-12" d="M104.65,47.77c.01-.23-.1-.89.31-.63.01,0-.02.18.06.25.09.08.24.04.26.06.09.09.2.21.31.31.02.02-.09.38.23.33h8.26c-.15,0-1.5.26-1.56.31-.05.04,0,.21-.01.3-.21,0-.42,0-.63,0,.17-.47-.77-.51-.63,0-1.85.01-3.7-.02-5.54,0-.43.21-.35.66-.48.89-.43.76-.98,1.51-1.47,2.3-.25.4-.16,1.19-1,.89-.19-.4.13-.82.31-1.26.63-1.47,1.46-2.05,1.57-3.77Z"/>
  <path class="cls-12" d="M85.48,35.51c.02.07-.03.21,0,.31.2.04.44-.03.63,0,2.68.52,6.85.13,9.82.31.61.04,1.31-.07,1.89,0,.23.03.49.12.23.31h-12.57c-.02.15.03.34,0,.47-.09.44-.46,1.29-.69,1.68-.07.12-.5.34-.52.41-.11.24-.02,1.25-.69.2-.27-.43.71-1.72.96-2.28.7-.26.51-.97.94-1.41Z"/>
  <path class="cls-9" d="M44,35.83l-.61-.76c-.49-.72-.61-1.42-.98-2.25-.61-1.37-2.05-3.04-2.71-4.55-.1-.24-.34-.88-.19-1.09.14-.2.7-.18.72-.15.04.08-.05.35,0,.51.04.12.69,1.4.8,1.59.15.26,1.05,1.08,1.07,1.16.08.28-.04.79.15,1.05.12.16.42.05.47.1.12.12-.06,1.17.02,1.24.06.05.42-.11.65.1.11.1.21.53.32.71.43.75.64.86.92,1.7h-.63c-.01.21.01.42,0,.63Z"/>
  <path class="cls-3" d="M58.14,83.91c-.06-.67.72-1.34,1.05-1.85.22-.35.34-.82.54-1.15.12-.19.54-.44.56-.49.1-.22,0-.52.05-.59.09-.17,1.18.21.84.63-.36.43-.12.36-.22.83-.02.1-.78.64-.89.79-.39.56-.65,1.82-1.31,2.15.05.9,1.08,2.13,1.55,2.96.25.43,1.44,2.88,1.59,3.01,0,.23.09.41.31.47,0,.05-.01.15,0,.16,0,.23.09.4.31.47,0,.05,0,.11,0,.16-.03,1.01-.03.62-.63.31-1.01-1.77-2.02-3.64-3.16-5.52-.11-.18-.66-1.05-.72-1.09-.51-.31-4.31-.14-5.23-.15v-.16c1.52,0,3.7.19,5.11,0,.16-.02.52-.46.86-.64-.01-.23.09-.91-.31-.63-.02.01.02.21-.05.26-.12.08-.24.03-.27.05Z"/>
  <path class="cls-13" d="M44,110.3c-.46.7-.06,1.39-.75,1.88-.14.1-.45.11-.49.18-.04.06-.27,1.06-.39,1.34-.13.33-.7,1.57-.94,1.89-.16.2-1.14.96-1.17,1.02-.12.21.02.55-.04.8-.03.11-.23.08-.31.23-.17.34.28.4-.32.51-.09.02-.29-.03-.31,0-.09.14.26.78-.55.79l-.08-.79c.59-.1.16-.15.32-.51.48-1.04,1.01-1.32,1.25-2.53.02-.11,1.08-1.52,1.24-1.81.06-.11.91-2.54,1.28-2.07.04.05-.12.53.39.31.31-.13.24-.66.24-.94l.31.16c-.09-.65.12-.39.32-.47Z"/>
  <path class="cls-1" d="M41.8,103.39c.72.1.53.75.71,1.09.73,1.37,1.39,2.45,2.12,3.82.05.1.27.1.31.22.24.99-.37.83-.58,1.2-.22.4.2.33-.36.58-.2.09-.4-.18-.32.47l-.31-.16c0,.29.07.81-.24.94-.51.22-.35-.26-.39-.31-.04-.83.83-1.28.63-2.09.03-.13.45,0,.3-.8-.73-1.34-1.46-2.69-2.19-4.02.31-.21.34-.59.31-.94Z"/>
  <path class="cls-1" d="M31.58,96.16c.16.26.6.16.86.16,1.05.01,2.1.01,3.15,0,.27,0,.7.1.86-.16h1.1s.22.15.16.31c-.15.11-3.11-.07-3.69,0-.23.03-.49.12-.23.31.53.1,3.79-.14,3.93,0,.05.04-.04.48,0,.63-.36.12-.22-.29-.54-.33-2.88-.32-7.59-.07-10.62.01.07-.78-1.57.15-1.41-.63,1.49-.04,2.99.06,4.48,0,.3-.01.63.16.54-.31.47,0,.94,0,1.41,0Z"/>
  <path class="cls-13" d="M62.85,27.65c-.02.21.03.42,0,.63-.33-.04-.35-.02-.31.31-.02.02.01.22,0,.31-.47-.1-.29.23-.31.63-.77.97-1.57,3.08-2.22,4.27-.43.8-.68.82-.93,1.75-.04.14-.28.1-.31.22-.07.29.03.68,0,.99-.88.03.3-1.52,0-1.88-.06-.07-.61.28-.63.31-.14.27.27.24-.31.47-.17-.55.3-.44.31-.47.03-.06-.05-.36.05-.58.28-.63,1.66-2.46,2.1-3.24.47-.83.68-1.63,1.31-2.46.01-.02.21.05.28-.03.12-.14-.01-.52.03-.6.02-.03.41-.04.53-.14.25-.2-.18-.41.41-.49Z"/>
  <path class="cls-11" d="M38.34,96.32c-.38.89.78,1.51.89,1.77.46,1.07.79,1.66,1.29,2.6.3.57,1.25,2.21,1.28,2.7.02.35,0,.74-.31.94-.05-.09-.09-.2-.16-.31l-.16-.16c-.87-1.58-1.76-3.24-2.6-4.85-.31-.59-.67-.86-.85-1.59.42-.14.22-.92.34-1.08.06-.08.25,0,.29-.02Z"/>
  <path class="cls-10" d="M116.67,120.36s.19.25.47.31c.31.06.69-.03,1.02,0v.31s-10.06,0-10.06,0c-.05,0,.24.55-.74.19-.39-.14-.78-.34-.67-.82h9.98Z"/>
  <path class="cls-12" d="M101.19,88.62c.56-.02.54.62.64.81.59,1.03,1.24,2.02,1.83,3.08.53.97.96,2.03,1.46,3.02-.03.76-.34.19-.53.06-.1-.07-.25-.05-.26-.06-.3-.32-.41-.78-.63-1.14-.91-1.49-2.46-3.77-3.14-5.3.45.11.23-.24.35-.43.06-.09.26-.03.27-.04Z"/>
  <path class="cls-3" d="M82.81,89.88c0,.38-.35.56-.45.76-.75,1.43-1.41,2.77-2.21,4.07-.27.44-.56,1.7-1.27,1.23-.5-.33.22-.98.27-1.08.6-1.3,1.24-2.73,1.99-3.98.07-.11.5-.34.53-.41.09-.2.02-.55.05-.58.05-.06.89.03,1.1,0Z"/>
  <path class="cls-10" d="M124.76,59.55c.08.12.34-.27.31.79.09.01.3-.03.31,0,.16.23-.33.59.31.63.04-.28,0-.64,0-.94l10.06.08c-.23.68-1.5.35-2.12.39-2.11.15-4.41.02-6.32.47-.33.08-1.22.03-1.62,0-.05.44-.28.28-.31.42-.14.59.3.73-.32.84l-.07-.95c-.16-.23-.31-.03-.55,0,.04-.64.46-.16.63-.31.02-.02,0-.48,0-.63-.1-.02-.21.02-.31,0v-.79Z"/>
  <path class="cls-13" d="M102.13,29.23c.51-.12.27.37.31.79-.14.11-.7,1.44-1,1.92-.66,1.08-1.35,2.36-1.83,3.39-.16.35.27.41-.32.51v.79c-.05-.11-.51-.3-.31-.78.1-.01.22.01.31,0,0-.31,0-.63,0-.94-.41-.12-.27.19-.36.26-.11.08-.25.04-.26.05-.3-.59.58-.85.62-1.06.22-1.02.38-1.04.95-1.97.62-1.01,1.26-2.11,1.88-2.94Z"/>
  <path class="cls-14" d="M58.14,83.91s.15.03.27-.05c.07-.05.03-.25.05-.26.4-.28.3.4.31.63-.34.17-.69.62-.86.64-1.42.18-3.59-.02-5.11,0-.84,0-1.68,0-2.51,0,.14-.71-1.09.08-.94-.63,2.48,0,6.08.3,8.41,0,.31-.04.28-.26.39-.32Z"/>
  <path class="cls-14" d="M57.51,60.02c.05.15-.03.44,0,.63-2.41,0-4.82-.01-7.23,0,.09-.47-.24-.3-.54-.31-.48-.02-.95.02-1.43,0-.3-.01-.63.16-.54-.31,3.24-.01,6.5,0,9.74,0Z"/>
  <path class="cls-11" d="M38.97,49.97c.51.19.29.31.58.75.43.68.84,1.44,1.26,2.2.34.61.87,1.2,1,1.92-.41-.38-.43.23-.47.47.73-.13.36.27.48.51.28.56.6,1.28.94,2.01l-.9-.99c-1.25-2.42-2.45-4.8-3.66-7.18.22.29.56.23.79.31Z"/>
  <path class="cls-7" d="M62.54,91.45l.9.99c.21,1.07,1.12,2,1.5,2.98.07.19.16.37.12.58-.19.05-.86.26-.94.16-.04-.04.05-.35,0-.5-.05-.14-.22-.14-.29-.26-.66-1.22-1.21-2.42-1.9-3.64.6.3.6.7.63-.31Z"/>
  <path class="cls-1" d="M81.08,27.65c.01.09-.02.29,0,.31-.11.4.28.28.31.31s-.08.43.31.31c.57.85,1.06,1.74,1.55,2.65.24.43.43,1.06.65,1.44.02.04.52-.09.31.63-.09-.02-.29.03-.31,0-.06-.08.05-.59,0-.63-.03-.03-.31.06-.43-.03-.23-.17-.02-.68-.43-.6-.11.02-.07.16-.08.16-.5-.01-.56-.86-.69-1.05-.36-.53-.82-1.09-1.15-1.67-.16-.28,0-.6-.37-.89.05-.28-.03-.37-.31-.31-.03-.2.02-.42,0-.63.21,0,.42,0,.63,0Z"/>
  <path class="cls-13" d="M30.17,48.08c.84.01,1.68,0,2.51,0,0,.07-.02.3,0,.31.29.22,2.34-.38,2.67.31-2.29-.02-5.52-.25-7.7,0v-.63c.11.07,2.12,0,2.51,0Z"/>
  <path class="cls-7" d="M62.54,43.68c-.05.77-.03.5.31.63.95.36.39.56.58,1.06s.82.39.72,1.09l.89,1.31c-.39-.08-.38.65-.79.4-.25-.15-1.57-2.8-1.72-3.23-.2-.55-.43-.95-.16-1.57.02.05.15.3.16.31Z"/>
  <path class="cls-1" d="M37.71,47.45c.52-.13.24.48.38.96.09.29.37.4.4.46.13.27.24.77.47,1.1-.22-.08-.57-.02-.79-.31-.12-.23-.65-.35-.48-.94-.78-.02-1.57,0-2.35,0-.33-.69-2.38-.1-2.67-.31-.02-.02.01-.24,0-.31.63,0,1.26.01,1.89,0,.96-.02,1.75.09,2.67-.16.12-.03.4.06.46,0s-.02-.35.01-.46Z"/>
  <path class="cls-12" d="M111.4,72.28l.08.15.08-.15c1.36,0,2.73,0,4.09,0,.15.73-1.25-.1-1.1.63-2.15,0-4.3-.02-6.44,0-.09-.47.24-.3.54-.31.63-.02,1.75.24,2.13-.31.21,0,.42,0,.63,0Z"/>
  <path class="cls-12" d="M60.34,39.75s-.02.12,0,.16c.03.04.08.19.16.31.03.05.12.1.16.16v.78s.16,0,.16,0l.16-.31c.63.95.95,1.38,1.41,2.51-.27.62-.04,1.02.16,1.57-.39.09-.3-.22-.41-.44-.54-1.07-1.18-2.26-1.79-3.33.04-.98-.94-1.02-.47-1.88.12.02.42.4.47.47Z"/>
  <path class="cls-13" d="M32.37,71.97c.3.03.36-.11.31.31-.01,0,.06.27-.1.32-.31.08-1-.02-1.4,0-.3.01-.63-.16-.54.31-1.51,0-3.05-.06-4.56,0-.12-.33.73-.6.87-.62,1.37-.21,3.39.04,4.87,0,.3-.01.63.16.54-.31Z"/>
  <path class="cls-11" d="M114.08,48.08c1.27-.12,2.71.09,4.01,0l-.08.63c-1.72-.14-3.74,0-5.5,0,0-.09-.04-.26.01-.3.06-.05,1.41-.31,1.56-.33Z"/>
  <path class="cls-13" d="M112.19,96.16c-.09.47.24.3.54.31.89.03,1.81-.06,2.68,0,.45.03.16.39.23.63-1.5-.02-3.27.14-4.71,0,.04-.33.02-.35-.31-.31,0-.48.24-.25.31-.31.43-.06,1.07.22.94-.31.1,0,.21,0,.31,0Z"/>
  <path class="cls-6" d="M98.05,84.22c-.03.18.1.6-.09.63-1.54-.08-3.18.1-4.71,0-.45-.03-.16-.39-.23-.63,1.58-.17,3.42.12,5.03,0Z"/>
  <path class="cls-11" d="M82.96,32.21s-.03-.13.08-.16c.41-.08.2.43.43.6.12.09.4,0,.43.03.05.04-.06.55,0,.63.02.03.22-.02.31,0,.57.1.16.08.32.51.11.31.7.98.94,1.69-.44.45-.24,1.15-.94,1.41.06-.13.22-.25.27-.43.2-.74-.18-.62-.22-.72-.27-.66-.47-1.25-.68-1.83-.25-.7-.44-.67-.63-.94-.15-.21-.37-.55-.31-.79Z"/>
  <path class="cls-3" d="M49.34,84.22c-.14.71,1.09-.08.94.63-1.55,0-3.27.1-4.8,0-.45-.03-.16-.39-.23-.63,1.36-.03,2.73,0,4.09,0Z"/>
  <path class="cls-11" d="M115.65,72.28c1.15,0,2.31,0,3.46,0-.02.55.18.61-.31.63-1.4.06-2.84,0-4.24,0-.15-.73,1.25.1,1.1-.63Z"/>
  <path class="cls-7" d="M47.77,60.02c-.09.48.24.3.54.31.47.02.95-.02,1.43,0,.3.01.63-.16.54.31-.68,0-4.82-.14-5.03,0l-.31-.63c.94,0,1.89,0,2.83,0Z"/>
  <path class="cls-13" d="M150.84,23.88c-.09-.48.24-.3.54-.31,2.06-.08,4.39-.07,6.46,0,.3.01.63-.16.54.31-2.31.2-5.17,0-7.54,0Z"/>
  <path class="cls-9" d="M109.68,23.57c.09.47-.24.3-.54.31-.48.02-3.38.08-3.52-.03-.07-.06,0-.26-.03-.28h4.09Z"/>
  <path class="cls-1" d="M104.33,95.53s.15,0,.26.06c.18.13.5.7.53-.06.73-.15.43.36.47.94-1.06-.03-1.42.35-1.26-.94Z"/>
  <path class="cls-13" d="M104.02,73.69c-.94-.54.61-1.04.31-1.73.11.19.5.34.39.8-.09.38-.58.7-.71.93Z"/>
  <path class="cls-9" d="M30.17,48.08c-.09-.48.24-.3.54-.31.45-.02,1.52-.09,1.88,0,.18.04.07.17.09.32-.84,0-1.68.01-2.51,0Z"/>
  <path class="cls-10" d="M124.76,57.82c.46-.07.24.43.46.72.29.39.4-.15.48.85-.85-.18-.83-.92-.94-1.57Z"/>
  <path class="cls-9" d="M37.24,47.92c-.93.24-1.71.14-2.67.16.78-.18,1.93-.52,2.67-.16Z"/>
  <path class="cls-13" d="M103.08,51.54c-.18.43-.5.86-.31,1.26-.09-.03-.28.1-.32-.09-.07-.31.06-.81,0-1.16h.63Z"/>
  <path class="cls-9" d="M144.24,27.97c.1.6-.13,1.15-.79,1.26.19-.63.54-.92.79-1.26Z"/>
  <path class="cls-3" d="M44.62,84.22c.1,0,.21,0,.31,0,.24,1.09-.87.65-.94,0,.21-.01.42.01.63,0Z"/>
  <path class="cls-11" d="M42.74,56.57c.78.12.59,1.01.94,1.57-.11-.09-.49.2-.15-.31-.52.23-.67-.78-.79-1.26Z"/>
  <path class="cls-13" d="M52.17,35.83c-.84.26-2.13.26-2.99,0,.99,0,1.99,0,2.99,0Z"/>
  <path class="cls-12" d="M99.93,87.68s.21-.04.29.02c.05.04.22.98.34,1.24-.63-.1-.72-.67-.63-1.26Z"/>
  <path class="cls-9" d="M142.67,29.23c.06.48-.09.9-.63.94.12-.69.53-.8.63-.94Z"/>
  <path class="cls-1" d="M83.28,33c.19.27.37.24.63.94-.45-.06-.75-.52-.63-.94Z"/>
  <path class="cls-10" d="M111.88,96.16c.13.54-.51.26-.94.31.02-.02-.07-.27.11-.32.21-.06.58.01.84,0Z"/>
  <path class="cls-10" d="M80.76,20.74s-.21,0-.31,0v-.78c.49-.15.52.61.31.78Z"/>
  <path class="cls-11" d="M111.25,48.71c-.14-.51.8-.47.63,0-.21,0-.42,0-.63,0Z"/>
  <path class="cls-12" d="M62.54,43.68s.51-.1.31.63c-.35-.13-.37.14-.31-.63Z"/>
  <path class="cls-13" d="M158.86,24.51c.18.03.42-.06.61.02.07.09,0,.24.02.29-.4-.02-.73.16-.63-.31Z"/>
  <path class="cls-10" d="M62.54,28.91c-.14.97-.14.41-.31.63.02-.4-.16-.73.31-.63Z"/>
  <path class="cls-9" d="M142.99,30.17c-.02.4.16.73-.31.63.06-.57-.21-.55.31-.63Z"/>
  <path class="cls-11" d="M60.97,40.85l-.16.31h-.15s0-.78,0-.78c.1.15.21.32.31.47Z"/>
  <path class="cls-13" d="M37.55,71.97c-.41.63-.59.16-.63.16l.63-.16Z"/>
  <path class="cls-11" d="M42.11,55.31s.24-.05.3.02c.08.09-.01.34.02.46-.42.07-.32-.1-.31-.47Z"/>
  <path class="cls-12" d="M101.19,88.46c-.47-.17-.35-.78-.47-1.1.21.31.5.71.47,1.1Z"/>
  <path class="cls-13" d="M159.33,23.57c.07.42-.1.32-.47.31.01,0,.05-.17.16-.23.12-.07.29-.06.31-.08Z"/>
  <path class="cls-11" d="M42.42,55.94c.06.04.28-.04.31,0,.04.05-.02.34,0,.47-.23-.07-.31-.24-.31-.47Z"/>
  <path class="cls-7" d="M61.91,90.19c.18.16.21-.33.31.47-.23-.07-.3-.24-.31-.47Z"/>
  <path class="cls-7" d="M62.22,90.82c.27.17.25-.3.31.47-.23-.07-.31-.24-.31-.47Z"/>
  <path class="cls-10" d="M110.62,96.79c.33-.04.35-.02.31.31-.09,0-.29.03-.31,0-.02-.02,0-.23,0-.31Z"/>
  <path class="cls-10" d="M81.08,27.97c.11.12.14.12.31.31.06.06.05-.08.31.31-.4.11-.28-.28-.31-.31s-.43.09-.31-.31Z"/>
  <path class="cls-10" d="M80.45,28.28c.29-.06.36.03.31.31-.14-.11-.24.26-.31-.31Z"/>
  <path class="cls-10" d="M62.85,28.28c-.07.58-.2.21-.31.31-.04-.33-.02-.35.31-.31Z"/>
  <path class="cls-11" d="M41.64,66.31l.16-.47s-.03.24-.16.47Z"/>
  <path class="cls-11" d="M60.49,40.23c-.08-.13-.13-.27-.16-.31l.16.31Z"/>
  <path class="cls-11" d="M41.32,66.94l.16-.31c-.05.09-.09.2-.16.31Z"/>
  <path class="cls-11" d="M41.95,55.15c-.07-.02-.14-.08-.16-.16.06.05.11.1.16.16Z"/>
  <path class="cls-13" d="M35.2,72.28h-.16c.07,0,.12,0,.16,0Z"/>
  <path class="cls-1" d="M41.32,104.02s-.12-.09-.16-.16l.16.16Z"/>
  <path class="cls-14" d="M65.68,51.85s.33-.34.75-.58c3.73-2.19,7.82-4.87,11.64-6.94,1.01-.55,1.89-1.12,3.1-.97.28.04.25.29.51.43,3.93,2.09,7.63,4.28,11.53,6.51,1.23.7,2.76,1.86,3.95,2.45.21.11.51,0,.58.05.04.03-.03.29,0,.31.15.68,1.43,1.09,1.26,1.79-.02.08-.63.17-.32.41.07.05.48-.05.63,0-.02,3.77.02,7.54,0,11.31-.71-.08-.66.42-.63.94h-.47c-.16-.16.24-2.45-.79-2.2.15,1.5-.2,3.35-.01,4.8.04.3.3.15.34.45.08.62-.15,1.66-.01,2.19.04.15.29.05.32.18.08.35-.89.53-.62.86.04.05.28-.02.31,0,.02.02,0,.23,0,.31-.38-.12-.29.3-.31.31-.35.26-.25-.46-.63-.31v-.31c.47.1.49-.4,0-.31v-.63c.83.25.72-.59.64-1.19-.04-.3-.3-.15-.34-.45-.29-2.27.09-5.45.01-7.87-.01-.3.16-.63-.31-.54,0-2.41.07-4.82-.08-7.23-.17-.35-.52-.22-.74-.33-1.16-.58-5.5-2.94-6.41-3.75-.23-.2.33-.19-.63-.31-.08-.49-.29-.3-.75-.58s-.57-.24-.82-.37c-2.01-1.04-4.01-2.6-5.85-3.5-.34-.17-.72-.41-1.1-.39-.15,0-2.27,1.16-2.59,1.34-3.49,1.9-7.18,4.28-10.77,6.34-.56.32-.96.68-1.69.94.23-.63.82-.48.94-1.02.11-.52-.78.09-.63-.55,1.13-.06,1.32-.72,0-.95-.12-.52.74-.19,0-.63ZM67.21,51.59c-.26-.08-.48-.06-.74-.05,0,.26.43.27.47.32.27.32-.66.35-.31.62.31.24.67-.24.93-.32.13-.15-.32-.56-.35-.57Z"/>
  <path class="cls-3" d="M62.22,54.05c-.09.35-.32.81-.33.85-.19,1.4-.18,6.31,0,7.72.04.3.3.15.34.45.09.73-.18,4.77-.01,4.96.57-.25,1-.04,1.57,0v2.51l.31-.23v-13.21c-.03-.29-.46-.15-.33-.94.05-.29.26-.19.32-.35.05-.14-.04-.45.01-.5s.36.04.5-.01c.25-.1.36-.17.75-.31-.02.06.06.2-.02.29-.12.13-.96.16-.93.57l.04,18.59c.21.18.58.22.78.36,3.83,2.67,8.88,5.3,12.97,7.57.23.13.53.81,1.15.58v-6.68c0-.59-1.35-.87-1.41-1.49.11.04.34-.05.58.05.05.02.65.71.74.83.07.08.25.05.25.07v7.23c.35.24.34-.66.63-.31.11.13-.13,1-.32,1.18-.17.16-.5.14-.64.34-.24.36.11.85.02,1.21-.05.2-.34-.11-.32.41.38.12.69.3.74.31.22.05.99.05,1.23.01.37-.05.91-.92.23-.48.22-2.22-.3-5.01-.01-7.16.04-.31.47-.54.34-1.57-.04-.31-.38-.08-.34-.78.03-.52.3-.3.34-.61.27-2.07-.01-5.41-.01-7.63v-5.03c.08-.09-.2-.24.31-.31v23.34c-.04.43-1.12.85-1.47.82-.25-.02-1.35-.61-1.36-.9-1.35-.42-2.74-1.54-3.89-2.19-3.5-1.98-6.99-3.93-10.44-6.03-.68-.41-1.8-.91-2.33-1.43-.27-.26-.25-.63-.61-.83v-20.24c.09-.3.18-1.02.62-1.01Z"/>
  <path class="cls-8" d="M78.56,62.22l.95.26v10.01c-.03.16.2.1.31.09.71,0-.07-.69.63-.63.03.74-.26,1.08.63.94,0-1.67,0-3.35,0-5.03.1,0,.21,0,.31,0,0,2.22.28,5.56.01,7.63-.04.31-.31.09-.34.61-.04.7.3.47.34.78.13,1.03-.3,1.26-.34,1.57-.28,2.15.23,4.94.01,7.16.68-.44.15.43-.23.48-.25.03-1.01.04-1.23-.01-.04-.01-.36-.19-.74-.31-.02-.52.28-.22.32-.41.08-.35-.27-.85-.02-1.21.14-.21.47-.18.64-.34.18-.18.43-1.05.32-1.18-.29-.34-.28.55-.63.31v-7.23s-.18.01-.25-.07c-.09-.12-.69-.81-.74-.83-.24-.1-.47,0-.58-.05-.83-.3-3.77-3.76-4.87-4.64-.1-.08-.12-.31-.19-.35-.21-.13-2.05.12-2.68-.04-.11-.03-.11-.23-.16-.26-.47-.18-1.23-.64-1.51-1.12-.78-1.34-.54-3.67.75-4.57,2.23-1.55,5.05-.32,5.49,2.29.17,1.01-.53,1.81-.19,2.55.18.4.63.37.81.53.92.83,1.73,1.86,2.62,2.72l1.36,1v-9.98c0-.52-.62-.33-.75-.43-.08-.06-.02-.27-.03-.28ZM72.35,65.93c-.75-1.07-2.08-.65-2.1.64-.02,1.66,2.73,1.27,2.34-.46-.03-.12-.2-.12-.24-.18ZM79.82,80.76v.94s.31,0,.31,0v-.94s-.31,0-.31,0ZM80.33,85.32c0-.11-.09-.19-.19-.19s-.19.09-.19.19.09.19.19.19.19-.09.19-.19ZM80.76,85.79s.06-.33-.08-.31c-.43.25-.11.49.08.31Z"/>
  <path class="cls-14" d="M78.56,62.22c-.47-.33-1.18-.78-1.52-1.31-.07-.11-.02-.34-.1-.53-.02-.05-.23-.06-.26-.16-.29-1.19.05-3.59,1.14-4.33,2.59-1.77,5.34-1.06,6.42,1.8.06.15.27.09.31.35.17,1.28-.42,3.1-1.46,3.91-.43.33-.89.51-1.38.58-.52.08-.23.23-.31.31-.02.02-.21-.05-.28.03-.16.19-.03,4.33-.04,5-.1,0-.21.01-.31,0-.05-.28.11-1.52-.08-1.57-.37-.1-.22.34-.23.55s.04.99,0,1.02c-.06.05-.57-.06-.63,0-.17.16.13,4.11,0,4.71-.11,0-.34.07-.32-.09v-10.01s-.94-.26-.94-.26ZM81.97,59.35c.51-1.41-.95-2.79-2.36-1.82-1.61,1.11-.12,3.43,1.59,2.69.14-.06.76-.81.77-.87ZM80.45,63.95v1.57s.31,0,.31,0v-1.57s-.31,0-.31,0Z"/>
  <path class="cls-3" d="M99.31,75.11c.21.35-.73,1.35-.99,1.52-.42.28-1.47.66-2.03,1-3.18,1.91-6.58,3.97-9.98,5.91-.25.14-.2.55-.82.37v-3.14s.35-.02.56-.15c3.15-1.98,6.62-3.82,9.93-5.77.15-.09.43-.65.82-.36.06.05-.23.41.4.32.37-.05.19-.29.23-.32.07-.06.32.16.31-.31,0-.09.02-.3,0-.31,1.21.29.16-.96.94-.94v1.88c.27.34.69-.87.63-1.15-.02-.11-.48-.04-.32-.63.03-.12.29-.03.33-.33.22-1.66-.02-4.27-.01-6.06.02-3.77-.02-7.54,0-11.31.23.07.15.21.16.38.42,6.25-.2,13.14-.16,19.41ZM98.36,74.32c-.53-.11-.24.36-.31.68-.04.17-.47,0-.32.41.94.18.57-.35.63-1.1ZM96.79,75.74c-.32-.25-1.16.46-.94.63.32.25,1.16-.46.94-.63Z"/>
  <path class="cls-6" d="M65.68,51.85c.74.44-.12.1,0,.63,1.32.22,1.12.89,0,.95-.16.63.74.03.63.55-.12.55-.71.39-.94,1.02-.4.14-.5.21-.75.31-.14.06-.45-.04-.5.01s.04.36-.01.5c-.06.16-.27.06-.32.35-.13.79.3.65.34.94v13.21s-.33.23-.33.23v-2.51c-.57-.04-1-.25-1.57,0-.16-.19.1-4.23.01-4.96-.04-.3-.3-.15-.34-.45-.18-1.41-.19-6.32,0-7.72,0-.05.24-.51.33-.85.24-.91,1.85-1.38,2.63-1.84.5-.29.47-.2.83-.36Z"/>
  <path class="cls-8" d="M88.62,66.62c.32-1.27-.5-4.03,1.78-3.46.03,0,.42.52.42.55v2.91h3.46c.04.56.25,1.22,0,1.77-.05.1-.66.43-.7.43h-2.75v2.91s-.39.54-.42.55c-.18.04-.72.04-.92,0-.06,0-.8-.63-.82-.67-.17-.46.43-2.1-.04-2.79h-2.44s-.7-.36-.71-.42c-.11-.46.09-1.27,0-1.78h3.14Z"/>
  <path class="cls-8" d="M97.73,53.11s.36-.05.58.05c.15.07,1.3,1.64,1.31,1.75-.21,6.51.24,13.16-.01,19.66-.01.3.16.63-.31.54-.03-6.27.58-13.17.16-19.41-.01-.17.06-.31-.16-.38-.15-.05-.56.05-.63,0-.31-.24.3-.33.32-.41.17-.69-1.11-1.11-1.26-1.79Z"/>
  <path class="cls-6" d="M96.79,62.85c.47-.09.3.24.31.54.08,2.42-.3,5.6-.01,7.87.04.3.3.15.34.45.07.6.19,1.44-.64,1.19,0-3.35.01-6.71,0-10.06Z"/>
  <path class="cls-1" d="M87.36,50.28c.25.13.35.08.82.37s.67.08.75.58c.95.12.4.11.63.31h-.63c-.02-.1.02-.22,0-.31-.76-.1-.61-.28-.74-.31-.57-.15-.97.37-.83-.63Z"/>
  <path class="cls-6" d="M96.79,74.16c.37-.15.28.57.63.31.02-.02-.07-.44.31-.31,0,.48-.24.25-.31.31-.04.04.14.27-.23.32-.63.08-.34-.28-.4-.32v-.31Z"/>
  <path class="cls-6" d="M96.79,73.54c.49-.09.47.41,0,.31v-.31Z"/>
  <path class="cls-6" d="M97.73,73.85s-.27.04-.31,0c-.27-.33.7-.51.62-.86-.03-.14-.28-.03-.32-.18-.14-.53.09-1.57.01-2.19-.04-.3-.3-.15-.34-.45-.18-1.45.16-3.3.01-4.8,1.03-.25.62,2.04.79,2.2h.47c-.03-.53-.08-1.03.63-.94,0,1.79.23,4.4.01,6.06-.04.3-.29.21-.33.33-.16.59.3.52.32.63.05.28-.36,1.49-.63,1.15v-1.88c-.78-.02.26,1.23-.94.94Z"/>
  <path class="cls-6" d="M67.21,51.59s.48.42.35.57c-.27.08-.63.56-.93.32-.35-.27.58-.31.31-.62-.04-.05-.48-.05-.47-.32.26-.01.48-.03.74.05Z"/>
  <path class="cls-6" d="M81.39,62.85v5.03c-.1,0-.21,0-.31,0,0,1.67,0,3.35,0,5.03-.89.14-.6-.21-.63-.94-.7-.06.08.62-.63.63.13-.61-.17-4.55,0-4.71.06-.05.57.06.63,0,.04-.04-.01-.81,0-1.02s-.13-.65.23-.55c.19.05.03,1.29.08,1.57.1.01.21-.01.31,0,0-.67-.13-4.81.04-5,.06-.07.26,0,.28-.03Z"/>
  <rect class="cls-3" x="79.51" y="81.08" width=".94" height=".32" transform="translate(-1.32 161.15) rotate(-89.95)"/>
  <circle class="cls-3" cx="80.14" cy="85.32" r=".19"/>
  <path class="cls-3" d="M80.76,85.79c-.18.18-.51-.07-.08-.31.14-.02.09.3.08.31Z"/>
  <rect class="cls-6" x="79.82" y="64.58" width="1.57" height=".32" transform="translate(15.84 145.32) rotate(-89.98)"/>
  <path class="cls-6" d="M98.36,74.32c-.05.74.32,1.28-.63,1.1-.15-.42.28-.25.32-.41.07-.32-.22-.8.31-.68Z"/>
  <path class="cls-6" d="M96.79,75.74c.22.17-.62.87-.94.63-.22-.17.62-.87.94-.63Z"/>
  <path class="cls-11" d="M39.91,77.31c-.13-.12-.32.3-.31-.47.23.07.3.24.31.47Z"/>
  <path class="cls-7" d="M111.4,72.28c.05,0,.1,0,.16,0l-.08.15-.08-.15Z"/>
  <circle class="cls-7" cx="44.47" cy="60.18" r=".19"/>
  <path class="cls-10" d="M36.45,96.16c-.16.26-.6.16-.86.16-1.05.01-2.1.01-3.15,0-.27,0-.7.1-.86-.16,1.62,0,3.25,0,4.87,0Z"/>
  <path class="cls-5" d="M92.16,96.95l6.76,13.99,6.76-13.99h4.48v19.48h-4.09v-12.26l-5.73,12.1c-.27.24-2.62.26-2.83,0l-5.73-12.41v12.57h-3.93v-19.48h4.32Z"/>
  <path class="cls-2" d="M77.86,96.95c2.54.25,5.19,2.09,5.66,4.71.56,3.09-.69,6.07-3.71,7.16l4.09,7.61h-4.56l-3.61-6.91h-2.83v6.91h-3.93v-19.48c2.85.2,6.07-.27,8.88,0ZM77.39,100.41c-1.34-.19-3.09.14-4.48,0v5.66h3.85c.3,0,1.59-.56,1.88-.79,1.65-1.3,1.07-4.54-1.26-4.87Z"/>
  <path class="cls-5" d="M65.84,103.39h-4.09c-.06,0-.29-.77-.55-1.1-2.16-2.8-6.39-2.61-8.47.17-.41.55-.45.92-.72,1.45-.05.1-.28.11-.29.13-.04.1.16.33.14.51-.01.11-.31.08-.32.19-.31,2.2.13,5.36,1.8,6.98,2.25,2.19,7.62,1.67,8.41-1.73h4.09c-1.02,4.96-5.02,6.92-9.83,6.61-8.45-.55-11.3-11.95-5.49-17.29,5.11-4.69,13.61-2.86,15.32,4.08Z"/>
</svg>