<?xml version="1.0" encoding="UTF-8"?>
<svg id="Camada_1" data-name="Camada 1" xmlns="http://www.w3.org/2000/svg" width="1200" height="700" viewBox="0 0 1200 700">
  <path d="M833.09,499.08c84.46-5.14,85.12,122.81-1.99,116.28-69.93-5.24-71.06-111.83,1.99-116.28ZM831.32,520.78c-42.7,5.82-39,79.21,12.75,72.77,42.45-5.29,38.11-79.7-12.75-72.77Z" fill="#fff"/>
  <path d="M610.43,499.08c79.12-5.02,85.11,110.17,11.03,116.28-82.89,6.84-88.73-111.35-11.03-116.28ZM607.78,520.78c-37.85,5.13-38.12,67.45,0,72.61,57.62,7.8,55.7-80.17,0-72.61Z" fill="#fff"/>
  <path d="M493.18,612.76h-25.66l-22.18-39.14h-17.4v39.14h-22.61v-111.33c.64-.23,1.04.87,1.3.87h55.67c.82,0,7.55,2.69,8.85,3.33,27.9,13.6,25.78,55.91-3.18,66.69l25.2,40.45ZM427.95,554.48h24.79c.45,0,5.59-1.83,6.44-2.26,11.34-5.7,10.67-25.29-1.64-29.51-.6-.21-5.38-1.29-5.67-1.29h-22.61l-1.3,1.3v31.75Z" fill="#fff"/>
  <path d="M769.78,501.42v21.74h-29.14c-.3,0-.96-1.54-2.17.43v89.15h-23.48v-90.46c-.64-.23-1.04.87-1.3.87h-30.44l-1.3-1.3v-19.14l1.3-1.12c.35-.03.65.68.87.68h84.37c.26,0,.67-1.1,1.3-.87Z" fill="#fff"/>
  <path d="M357.49,612.76h-23.48v-89.15l-1.27-1.09-29.18.66v-21.74c.64-.23,1.04.87,1.3.87h80.89c.3,0,.96-1.54,2.17.43v19.14c-.55.86-1.2,1.13-2.17,1.3-7.17,1.31-19.57-.42-27.18-.7l-1.96,1.14v86.98c0,.27,1.19,1.24.87,2.17Z" fill="#fff"/>
  <path d="M535.8,501.42v111.33h-23.48v-111.33c7.68,1.04,23.48,0,23.48,0Z" fill="#fff"/>
  <path d="M395.76,654.51l5.92.18,12.35,18.08v-18.27h5.22v30.44c-1.77-1.03-4.09-.54-5.71-1.68-2.04-1.44-8.53-13.28-10.61-16.32-.54-.78.15-1.59-1.94-1.13v16.96c0,.19,1.3.99.87,1.3h-6.09s0-29.56,0-29.56Z" fill="#fff"/>
  <path d="M780.21,654.51c1.65.27,4.6-.55,5.91.19,2.4,1.38,9.05,15.61,12.36,18.07v-18.27h5.22v29.57c-1.96-.02-3.94.46-5.72-.81-2.08-1.49-8.5-13.25-10.61-16.32-.54-.78.15-1.59-1.94-1.13v16.96c0,.19,1.3.99.87,1.3h-6.09s0-29.56,0-29.56Z" fill="#fff"/>
  <path d="M552.33,667.55c.02,6.6,1.53,12.44-5.47,15.84-7.52,3.65-17.18.93-20.17-7.17-6.35-17.21,12.44-30.14,24.76-16.04-3.54,6.37-6.1.43-8.43-.28-10.19-3.11-15.16,9.86-9.01,16.83,4.56,5.16,13.34,3.49,12.23-3.96h-6.97s0-5.22,0-5.22h13.05Z" fill="#fff"/>
  <path d="M500.78,654.72c23.96-4.03,22.79,34.38.18,29.84-15.66-3.14-14.5-27.43-.18-29.84ZM501.63,659.91c-8.21,1.85-8.03,17.31.23,19.43,14.11,3.62,14.49-22.74-.23-19.43Z" fill="#fff"/>
  <path d="M439.9,654.72c23.18-3.9,22.88,32.38.91,30.03-16.13-1.73-16.22-27.45-.91-30.03ZM440.74,659.91c-8.65,1.98-8.74,16.67-.47,19.25,14.05,4.37,15.42-22.67.47-19.25Z" fill="#fff"/>
  <polygon points="353.15 654.51 353.15 659.73 340.1 659.73 340.1 666.68 352.28 666.68 352.28 671.9 340.1 671.9 340.1 678.86 353.15 678.86 353.15 684.08 334.01 684.08 334.01 654.51 353.15 654.51" fill="#fff"/>
  <path d="M707.9,654.63l10.55,30.32-5.97-.98c-.69-7.97-8.06-4.52-13.94-5.02l-1.05,5.03-5.99.96,10.5-29.06c1.19-1.96,3.89-1.57,5.89-1.25ZM708.89,672.76l-4.34-10.42-3.49,10.42h7.83Z" fill="#fff"/>
  <path d="M591.37,654.61l10.53,30.34-5.97-.98c-.75-8-7.65-4.36-13.5-5.16l-2.22,5.77-5.26-.5,10.52-29.48,5.91.02ZM592.34,672.76l-4.34-10.42-3.49,10.42h7.83Z" fill="#fff"/>
  <path d="M892.41,660.58c-4.59,3.15-4.29.13-7.56-.67-2.07-.5-7-1.02-7.28,2.01-.47,5.2,11.77,3.98,14.73,9.66,6.74,12.92-17.27,18.97-21.63,6.43,5.47-2.95,4.5-.6,8.19.92,3.05,1.26,8.82,1.14,8.39-3.09-.49-4.92-13.83-2.08-14.86-11.31-1.38-12.36,16.25-13.86,20.02-3.95Z" fill="#fff"/>
  <polygon points="861.97 654.51 862.84 659.73 848.93 659.73 848.93 666.68 861.1 666.68 861.1 671.9 848.93 671.9 848.93 678.86 861.97 678.86 862.84 684.08 843.71 684.08 843.71 654.51 861.97 654.51" fill="#fff"/>
  <path d="M642.79,654.51v5.22h-13.05v6.96h12.18v5.22h-12.18v6.96h13.05v5.22h-19.14c-.23-.64.87-1.04.87-1.3v-28.27h18.27Z" fill="#fff"/>
  <path d="M770.65,654.51v5.22h-13.05v6.96h12.18v5.22h-12.18v6.96h13.05v6.09c-.32.43-1.12-.87-1.3-.87h-16.96v-29.57h18.27Z" fill="#fff"/>
  <path d="M387.07,662.32l-4.73,1.71c-2.8-4.54-8.47-6.02-12.71-2.17-6.97,6.34-.96,22.45,9.54,16.49,3.49-1.98,2.07-4.22,7.89-1.22-9.01,15.03-28.4,6.54-26.01-10.81,1.81-13.15,20.56-16.74,26.02-4Z" fill="#fff"/>
  <path d="M672.36,673.64v10.43s-4.3.52-4.3.52l-1.74-1.02.34-28.21c9.19-2.68,22.87-1.17,20.29,11.57-1.39,6.85-8.82,7.05-14.59,6.72ZM680.84,660.8c-1.61-1.6-6.26-.97-8.49-1.08v8.71c5.07,1.98,13.4-2.73,8.49-7.62Z" fill="#fff"/>
  <polygon points="325.31 654.51 325.32 659.73 317.48 659.73 317.48 683.64 316.22 684.74 311.4 684.08 311.4 659.73 303.56 659.73 303.57 654.51 325.31 654.51" fill="#fff"/>
  <polygon points="743.68 654.51 743.69 659.73 734.98 659.73 734.98 684.08 729.77 684.95 729.77 659.73 721.06 659.72 722.37 654.51 743.68 654.51" fill="#fff"/>
  <path d="M471.44,654.51v24.35h12.18v5.22h-16.09c-.3,0-.96,1.54-2.17-.43v-27.83c1.41-1.97,3.97-1.24,6.09-1.3Z" fill="#fff"/>
  <path d="M834.14,654.51v5.22s-7.83,0-7.83,0v24.35h-6.09c-.43-.32.87-1.12.87-1.3v-23.05h-8.7s0-5.22,0-5.22h21.74Z" fill="#fff"/>
  <path d="M567.11,654.51v29.57h-6.09c-.43-.32.87-1.12.87-1.3v-28.27h5.22Z" fill="#fff"/>
  <path d="M640.94,26.43c16.37,16.37,21.69,43.16,11.53,64.31,35.28,68.81,79.81,133.74,117.2,201.9,80.01,18.2,50.69,134.69-27.49,114.08-8.2-2.16-12.79-7.25-21.9-8.14-42.64-4.2-127.95-1.52-127.95-1.52,0,0-83.76-2.6-117.8,1.57-7.39.9-13.09,6.23-20.18,8.1-81.11,21.37-105.75-100.36-25.17-112.64l116.28-202c-27.07-59.5,50.12-111.01,95.47-65.64ZM618,87.06c24.67-24.59-12.27-62.14-37.37-38.26-25.4,24.17,12.51,63.03,37.37,38.26ZM736.99,297.91l-106.06-181.98-19.26,9.97,48.51,179.05,49.49,15.55c7.39-9.1,15.33-19.38,27.32-22.59ZM461.33,297.91c14,3.55,23.11,15.22,30.93,26.5l99.61-140.79c1.71-1.97,1.45-3.55,1.27-5.88-.37-4.85-13.27-51.81-15.18-53.85-.84-.89-11.58-6.75-12.34-6.19l-104.28,180.21ZM627.42,297.93l-22.07-81.27-43.27,62.72,65.34,18.54ZM701.48,349.34l-159.49-42.7-43.56,61.96h204.97s-1.92-19.26-1.92-19.26ZM419.52,369.79c21.88,21.8,59.22-7.04,40.8-34.62-20.85-31.22-68.58,6.94-40.8,34.62ZM750.61,324.81c-28.65,6.44-21.8,59.58,14.75,51.85,32.11-6.79,25.15-60.82-14.75-51.85Z" fill="#fff"/>
</svg>