<?xml version="1.0" encoding="UTF-8"?>
<svg id="Camada_1" data-name="Camada 1" xmlns="http://www.w3.org/2000/svg" viewBox="0 0 1574.75 1798.73">
  <defs>
    <style>
      .cls-1 {
        fill: #fff;
      }
    </style>
  </defs>
  <path class="cls-1" d="M1349.27,1270.87c201.1-12.23,202.66,292.4-4.73,276.85-166.51-12.48-169.19-266.28,4.73-276.85ZM1345.06,1322.55c-101.66,13.86-92.85,188.6,30.36,173.25,101.07-12.59,90.73-189.76-30.36-173.25Z"/>
  <path class="cls-1" d="M819.11,1270.86c188.38-11.96,202.65,262.3,26.27,276.85-197.35,16.28-211.25-265.11-26.27-276.85ZM812.82,1322.55c-90.12,12.22-90.76,160.6,0,172.89,137.18,18.57,132.63-190.87,0-172.89Z"/>
  <path class="cls-1" d="M539.96,1541.53h-61.09l-52.81-93.19h-41.42v93.19h-53.84v-265.08c1.52-.55,2.48,2.07,3.11,2.07h132.54c1.96,0,17.98,6.42,21.07,7.92,66.44,32.38,61.39,133.13-7.56,158.78l60.01,96.31ZM384.63,1402.78h59.02c1.08,0,13.31-4.36,15.34-5.37,27-13.56,25.4-60.23-3.9-70.26-1.44-.49-12.81-3.06-13.51-3.06h-53.84l-3.11,3.11v75.59Z"/>
  <path class="cls-1" d="M1198.52,1276.45v51.77h-69.38c-.73,0-2.3-3.67-5.18,1.04v212.27h-55.92v-215.38c-1.52-.55-2.48,2.07-3.11,2.07h-72.48l-3.11-3.11v-45.56l3.11-2.66c.84-.06,1.56,1.62,2.07,1.62h200.88c.63,0,1.59-2.62,3.11-2.07Z"/>
  <path class="cls-1" d="M216.89,1541.53h-55.92v-212.27l-3.02-2.6-69.47,1.57v-51.77c1.52-.55,2.48,2.07,3.11,2.07h192.6c.73,0,2.3-3.67,5.18,1.04v45.56c-1.3,2.05-2.86,2.68-5.18,3.11-17.06,3.12-46.6-1-64.7-1.67l-4.67,2.71v207.1c0,.63,2.84,2.95,2.07,5.18Z"/>
  <path class="cls-1" d="M641.43,1276.45v265.08h-55.92v-265.08c18.28,2.47,55.92,0,55.92,0Z"/>
  <path class="cls-1" d="M308.01,1640.94l14.09.43,29.4,43.06v-43.49h12.43v72.48c-4.22-2.45-9.75-1.27-13.61-4-4.86-3.43-20.3-31.62-25.26-38.86-1.27-1.86.35-3.79-4.63-2.7v40.38c0,.44,3.1,2.35,2.07,3.09l-14.5.02v-70.41Z"/>
  <path class="cls-1" d="M1223.37,1640.94c3.94.65,10.96-1.32,14.07.46,5.72,3.27,21.56,37.16,29.42,43.03v-43.49h12.43v70.41c-4.68-.05-9.39,1.09-13.61-1.93-4.96-3.54-20.24-31.54-25.25-38.86-1.27-1.86.35-3.79-4.63-2.7v40.38c0,.44,3.1,2.35,2.07,3.09l-14.5.02v-70.41Z"/>
  <path class="cls-1" d="M680.78,1672c.04,15.71,3.65,29.62-13.02,37.72-17.91,8.7-40.91,2.21-48.02-17.07-15.11-40.98,29.63-71.77,58.94-38.2-8.42,15.17-14.52,1.03-20.06-.66-24.27-7.41-36.11,23.46-21.44,40.07,10.85,12.29,31.76,8.31,29.11-9.43h-16.59s.01-12.43.01-12.43h31.06Z"/>
  <path class="cls-1" d="M558.05,1641.45c57.05-9.6,54.27,81.85.42,71.05-37.28-7.47-34.52-65.32-.42-71.05ZM560.07,1653.8c-19.56,4.4-19.13,41.21.56,46.25,33.6,8.61,34.5-54.15-.56-46.25Z"/>
  <path class="cls-1" d="M413.08,1641.45c55.19-9.27,54.47,77.1,2.17,71.49-38.41-4.12-38.63-65.36-2.17-71.49ZM415.1,1653.8c-20.6,4.72-20.81,39.7-1.13,45.82,33.45,10.41,36.72-53.97,1.13-45.82Z"/>
  <polygon class="cls-1" points="206.53 1640.94 206.53 1653.36 175.47 1653.36 175.47 1669.93 204.46 1669.93 204.46 1682.36 175.47 1682.36 175.47 1698.92 206.53 1698.92 206.53 1711.35 160.97 1711.35 160.97 1640.94 206.53 1640.94"/>
  <path class="cls-1" d="M1051.19,1641.24l25.12,72.18-14.21-2.33c-1.65-18.96-19.2-10.76-33.19-11.94l-2.5,11.99-14.26,2.29,25.01-69.2c2.83-4.66,9.27-3.74,14.03-2.98ZM1053.55,1684.41l-10.33-24.82-8.31,24.82h18.64Z"/>
  <path class="cls-1" d="M773.74,1641.19l25.06,72.23-14.21-2.33c-1.79-19.04-18.21-10.38-32.14-12.29l-5.29,13.74-12.54-1.2,25.04-70.19,14.06.04ZM776.04,1684.41l-10.33-24.82-8.31,24.82h18.64Z"/>
  <path class="cls-1" d="M1490.51,1655.39c-10.92,7.49-10.22.3-18.01-1.6-4.93-1.2-16.68-2.42-17.33,4.78-1.12,12.38,28.02,9.48,35.08,23.01,16.05,30.77-41.11,45.18-51.5,15.31,13.03-7.03,10.7-1.43,19.51,2.19,7.26,2.99,20.99,2.72,19.98-7.36-1.17-11.71-32.93-4.94-35.39-26.93-3.29-29.44,38.69-33,47.66-9.41Z"/>
  <polygon class="cls-1" points="1418.04 1640.94 1420.11 1653.36 1386.97 1653.36 1386.97 1669.93 1415.97 1669.93 1415.97 1682.36 1386.97 1682.36 1386.97 1698.92 1418.04 1698.92 1420.11 1711.35 1374.55 1711.35 1374.55 1640.94 1418.04 1640.94"/>
  <path class="cls-1" d="M896.16,1640.94v12.43h-31.06v16.57h28.99v12.43h-28.99v16.57h31.06v12.43h-45.56c-.55-1.52,2.07-2.48,2.07-3.11v-67.31h43.49Z"/>
  <path class="cls-1" d="M1200.59,1640.94v12.43h-31.06v16.57h28.99v12.43h-28.99v16.57h31.06l-.02,14.5c-.74,1.03-2.64-2.07-3.09-2.07h-40.38v-70.41h43.49Z"/>
  <path class="cls-1" d="M287.3,1659.54l-11.26,4.08c-6.67-10.8-20.17-14.33-30.25-5.16-16.59,15.09-2.3,53.45,22.71,39.27,8.32-4.72,4.92-10.04,18.79-2.91-21.46,35.79-67.61,15.56-61.94-25.74,4.3-31.3,48.96-39.86,61.94-9.53Z"/>
  <path class="cls-1" d="M966.56,1686.49v24.84s-10.25,1.23-10.25,1.23l-4.15-2.43.82-67.17c21.87-6.37,54.46-2.78,48.31,27.54-3.31,16.3-21.01,16.78-34.73,15.99ZM986.77,1655.93c-3.82-3.81-14.9-2.31-20.21-2.57v20.73c12.07,4.73,31.91-6.5,20.21-18.15Z"/>
  <polygon class="cls-1" points="140.26 1640.94 140.27 1653.38 121.62 1653.36 121.62 1710.32 118.61 1712.91 107.13 1711.35 107.13 1653.36 88.48 1653.38 88.49 1640.94 140.26 1640.94"/>
  <polygon class="cls-1" points="1136.39 1640.94 1136.4 1653.38 1115.68 1653.36 1115.68 1711.35 1103.25 1713.42 1103.25 1653.36 1082.54 1653.36 1085.65 1640.94 1136.39 1640.94"/>
  <path class="cls-1" d="M488.18,1640.94v57.99h28.99v12.43h-38.31c-.73,0-2.3,3.67-5.18-1.04v-66.27c3.36-4.68,9.46-2.96,14.5-3.11Z"/>
  <path class="cls-1" d="M1351.77,1640.94v12.44s-18.64-.01-18.64-.01v57.99l-14.5-.02c-1.03-.74,2.07-2.64,2.07-3.09v-54.88h-20.72s.01-12.43.01-12.43h51.77Z"/>
  <path class="cls-1" d="M715.99,1640.94v70.41l-14.5-.02c-1.03-.74,2.07-2.64,2.07-3.09v-67.31h12.43Z"/>
  <path class="cls-1" d="M891.77,145.51c38.97,38.98,51.64,102.76,27.46,153.11,84.01,163.83,190.02,318.43,279.05,480.71,190.5,43.35,120.69,320.69-65.46,271.62-19.52-5.15-30.46-17.26-52.13-19.39-101.52-9.99-304.65-3.62-304.65-3.62,0,0-199.43-6.19-280.48,3.73-17.59,2.15-31.17,14.84-48.04,19.28-193.12,50.89-251.78-238.95-59.93-268.19l276.86-480.95c-64.45-141.67,119.33-264.31,227.31-156.3ZM837.14,289.86c58.74-58.54-29.22-147.95-88.99-91.09-60.48,57.54,29.79,150.08,88.99,91.09ZM1120.45,791.89l-252.52-433.29-45.87,23.73,115.51,426.31,117.84,37.03c17.59-21.67,36.51-46.15,65.04-53.79ZM464.11,791.88c33.34,8.46,55.02,36.23,73.63,63.1l237.16-335.22c4.07-4.69,3.45-8.45,3.03-14-.88-11.54-31.59-123.36-36.15-128.22-1.99-2.12-27.56-16.08-29.38-14.73l-248.3,429.07ZM859.58,791.93l-52.55-193.5-103.02,149.35,155.57,44.15ZM1035.92,914.34l-379.74-101.66-103.71,147.52,488.03.02-4.58-45.88ZM364.56,963.03c52.09,51.92,141-16.75,97.15-82.43-49.63-74.34-163.28,16.52-97.15,82.43ZM1152.89,855.95c-68.21,15.33-51.92,141.85,35.12,123.45,76.45-16.16,59.89-144.8-35.12-123.45Z"/>
</svg>